<svg xmlns="http://www.w3.org/2000/svg" id="a" viewBox="0 0 353.9 208.6">
  <defs>
    <style>
      .b{fill:#fff}
    </style>
  </defs>
  <path d="m26.9 98.2-1.6-1 1.6 1Z" class="b"/>
  <path d="m342.4 75-.3.3.3-.3Z" class="b"/>
  <path d="m19 46.6-.3.4.4-.4Z" class="b"/>
  <path d="M49.4 99.2A100.8 100.8 0 0 1 26 88.6c-3-2-5.8-4-8.7-6.7a33 33 0 0 1-7.8-10.6A17.8 17.8 0 0 1 13.2 52a36 36 0 0 1 5.8-5.2c1.8-1.8 4.8-3.7 8.1-5.5l2.5-1.4 2.5-1.2 4.5-2.5 2.4-.6a42.9 42.9 0 0 1 6.3-2.8v.2c1.4-.8 3-1.5 4.4-2l3.4-1.3-.1.1 3.7-1.3-.6.4a124.2 124.2 0 0 1 15.9-5l-.6-.5 7-1.6 5.6-1.5A76 76 0 0 1 96 18l-.1.2a62.7 62.7 0 0 1 16-3 154.6 154.6 0 0 0 16.6-2.4c-1.6.4.8.2.6.4 6-.9 12.4-1.6 12.4-2.7 4.4-.4 3.6 0 4.2.4 0-.5 3.8-1 7.2-1.3l-1.6.3 9.8-1-2-.7c5.3-.1 1.4 1 6.4.5l-.1-.8c3.6-.1 6.5 0 9.4.3 2.8.3 5.6.6 9.1.8a727 727 0 0 1 44.3 0c14.8.7 29.3 2.2 42.4 5.3l1 .7c.2.5 2.1.5 4 .6 2 0 4 .1 4.4.6l3.1.3c.9.4 2.6 1 1 .8 2.9.7 3 .6 5 .8l2.9 1.3 2 .6 2 .6 3.9 1.2 3.8 1 3.8 1.3a90.5 90.5 0 0 1 15.4 5.9c3 1.7 6.8 3.9 10.6 6.5 3.7 2.6 7.6 5.7 10.3 9.4 1.3 1.8 2.3 3.7 2.9 5.7a11.6 11.6 0 0 1 .4 4.4l-.3 1.5c0 .5-.2 1-.4 1.5-.1.4-.2 1-.5 1.4l-.6 1.4-.7 1.3-.4.6-.4.6-.9 1.2-1.8 2.2a49 49 0 0 1-12.9 10.2c-4.9 3-10.3 5.3-15.8 7.6-11 4.5-22.4 8-33 12a7 7 0 0 0-2.4 1c-6.6 1.9-13.3 3.4-20 4.9l-4 .8c-2.5.6-6.1 1.2-10.1 2-8 1.4-18 2.8-25.8 3.9l-9.2 1.4c-2.1.5-3.2 1-2.5 1.4.7.4 3 .9 7.7 1.2a197 197 0 0 0 21.2.2l-.5.2c11.5-1.1 18.7-2.5 26.3-5 .7.4 3-.1 5.5-.8 2.4-.6 5-1.5 6.4-1.6l-.2.1c6.5-2.6 14.1-3.2 20.3-6.2-.2.2-.2.5-1.7 1 4.7-1.6 10.9-4.3 11.5-3.8 5.4-2.3 12-5 17.9-8a67.7 67.7 0 0 0 14-8.6l-.3.4a27.5 27.5 0 0 1 4-3.2l2-1.4 2.4-2.1.5-.3 3-3.2 1.7-2 1.6-2c.6-.7 1-1.5 1.5-2.2.5-.7.9-1.5 1.2-2.2l.5-1 .4-1 .5-1.8.5-.2c.9-3.5.8-7.3-.3-10.7.3 1.2.6 2.6.7 4-.7-.7-.7-2.7-1.5-5.4a18 18 0 0 0-5.1-8.4 25 25 0 0 0-8.2-5.8c-3-1.5-6-2.7-8.8-4.6-3-1 2.9.5-1.5-1.3.2-.7 2.2.7 1.3-.4l-5.5-3c-1.8-1-3.7-2-6.5-2.8v-.6A95 95 0 0 1 308 17c-3-1.3-5.6-2.2-8.1-2.5l-4-1.2-2.1-1a17 17 0 0 0-6.5-1.7L284.5 9c-3.4-.8-2.6.3-6.2-.8.1-.2-1-.5-2-.8-.9-.2-1.5-.4-.4-.4a88.6 88.6 0 0 0-13.2-2.2l-7.2-.9c-2.5-.3-5.2-.7-8-1.3-2.5.5-8-.4-10 0-.2-.4-11.2-.8-4.8-1.2.5 0 1.5 0 1.4.2l.8-.4c-3.2-.7-6-.8-9-.7-3 0-5.8.3-9 0 1.9.3 4.4.4 2.7.6l-5.9-.2 1.3-.4-8.8-.4 1.2.5c-4.3-.4-5.8-1.2-10.6-.5-2.2.4 4 .7-.5.9-5.7-.3-14.3-.6-21.7-.5.7.6-1.2.6-3.2.9L171 1c-7.7 1.1-3-1-10.6 0l.7-.4-2 1.2c-6.8 1.5-3.8-.8-11.4 1.2 3-.3 1.5 1-2.2 1l.9-.5c-2 .3-2.7.5-4.1.6 1.2-.4.6-.8-2.5-.4l2-.8-5.7 1.4c-4.5 0-11.4 1.4-13.3 1l-5 .6c-2.7.4-5.6.9-6.7 1.4 1.9-.7-3.4-.1-2-.9a46.1 46.1 0 0 1-12.6 2.5l.6-.1c-11 1.4-18.2 4.4-28 6.3.7.4-4.4 1.5-3 1.9-4.8 1.7-9.3 2.8-13 3.8-3.7 1.1-6.5 2-7.8 3.9-4.3 1.8-5.3 1.5-7.6 2.4l1-.6c-4 1.9-6.5 3-8.7 4.2-2.3 1.1-4.3 2-7.2 3.6-1.4 1-2 1.7-3 2.6-1 .9-2.2 1.8-4.7 3.4 1.4-1.4-.6 0-2.4 1.4 1.1-1 1.4-1.4-1.1.2l-1.1 1.3h-.1l-2 2 1.2-.8.6-.3a21.5 21.5 0 0 0-5 5c-1.5 2-2.4 3.7-2.8 3.8C1 55.6.4 58.4 0 61a27 27 0 0 0 .5 7.6C1.8 73.3 4 77.3 6.8 81c.4 1-1.3-.4-2.8-2.8.5 1 1.2 1.9 1.9 2.8.6 1 1.4 1.8 2 2.7-.1.1-.8-.6-1.6-1.6A298.2 298.2 0 0 0 4.1 79c1.9 3.8 4.9 7 8.2 9.6 3.3 2.6 7 5 10.8 7.6l1.8.5.5.3c0-.2 2 .5 3.2 1 1 1-.6 1 3.6 2.8a57 57 0 0 0 13.9 4.6c-2.4-.8-1.5-.9-.5-.7 2.1.6 3.2 1.4 5 1.7v.6c-.7-.7 5.8.8 6.6.7.6.4-.3.3-1.4.1-1-.1-2.3-.4-2.6-.3a115.8 115.8 0 0 0 6.5 1.5l6.5 1.1c4.7.3-.7-.7 1.6-.9 4 .5 8.1.6 12.8 1.5l-1.4-.7c7.7.3 12.3.6 17.5 1.4a229 229 0 0 0 26.2-2.6c3.8-.8 3.6-1.5 1.5-2-2.1-.4-6-.7-9.3-1l-6.1-.3c-11.2-.7-19.6-1-28.5-1.7a130.6 130.6 0 0 1-31-4.7Z" class="b"/>
  <path d="M157.6 49.6v-12l-5.9 9.8H149l-6-9.4v11.6h-5.9V27h5.3l8 13 7.6-13h5.3v22.6h-5.8Z" class="b"/>
  <path d="M185.4 42.4h-12.7c.6 1.8 2 2.8 4.3 2.8 1.7 0 2.9-.5 4-1.5l3.3 3.4c-1.7 1.8-4.1 2.8-7.5 2.8-6.2 0-10.2-3.8-10.2-9s4-9 9.6-9c5.2 0 9.3 3.2 9.3 9v1.5Zm-12.8-3.2h7.2c-.3-1.8-1.7-3-3.6-3s-3.2 1.2-3.6 3Z" class="b"/>
  <path d="m187 48.1 1.8-4.2c1.6 1 4 1.6 6.1 1.6s2.8-.4 2.8-1.2c0-2.3-10.3.4-10.3-6.6 0-3.3 3-5.8 8.5-5.8 2.4 0 5.1.5 6.9 1.4l-1.9 4.2a9.8 9.8 0 0 0-5-1.3c-2 0-2.8.6-2.8 1.2 0 2.5 10.3-.2 10.3 6.8 0 3.2-3 5.7-8.7 5.7-3 0-6-.7-7.7-1.8Z" class="b"/>
  <path d="M50.7 65.7c0-1.9 1.4-3.3 3.7-3.3s3.8 1.3 3.8 3.2c0 1.9-1.5 3.3-3.8 3.3s-3.7-1.4-3.7-3.3Zm.6 5.1h6.2v17.5h-6.1V70.8Z" class="b"/>
  <path d="M80 78.3v10h-6v-9c0-2.5-1.2-3.6-3-3.6-2 0-3.4 1.3-3.4 4.2v8.4h-6.2V70.8h5.9v2a7.5 7.5 0 0 1 5.5-2.2c4.1 0 7.2 2.3 7.2 7.7Z" class="b"/>
  <path d="M90.6 71.5h4.1V76h-4v12.2h-6.1V76.1H82v-4.6h2.6V71c0-4.2 2.6-6.9 7.3-6.9 1.5 0 3 .3 4 1l-1.5 4.2a4 4 0 0 0-1.8-.5c-1.3 0-2 .7-2 2.3v.4Z" class="b"/>
  <path d="M95.7 79.5c0-5.2 4.1-9 9.9-9s9.8 3.8 9.8 9-4 9.1-9.8 9.1-10-3.8-10-9Zm13.5 0c0-2.6-1.6-4-3.7-4s-3.6 1.4-3.6 4 1.6 4.2 3.6 4.2 3.7-1.5 3.7-4.2Z" class="b"/>
  <path d="M130 70.5v5.6l-1.4-.1c-2.5 0-4.2 1.2-4.2 4.3v8h-6.1V70.8h5.8V73a7.5 7.5 0 0 1 5.9-2.4Z" class="b"/>
  <path d="M162.3 78.3v10h-6.1v-9c0-2.5-1-3.6-2.7-3.6-1.7 0-3 1.2-3 4v8.6h-6.1v-9c0-2.5-1-3.6-2.7-3.6-1.8 0-3 1.2-3 4v8.6h-6.2V70.8h5.8v1.9a7 7 0 0 1 5.2-2.2c2.4 0 4.5 1 5.7 2.8a7.6 7.6 0 0 1 6-2.8c4.1 0 7.1 2.4 7.1 7.8Z" class="b"/>
  <path d="M182.6 78.6v9.7h-5.7v-2.2c-1 1.6-2.7 2.5-5.2 2.5-4.2 0-6.5-2.3-6.5-5.4 0-3.2 2.3-5.2 7.8-5.2h3.4c0-1.8-1.3-2.8-3.7-2.8-1.6 0-3.5.6-4.7 1.5l-2-4.1c2-1.3 4.9-2 7.6-2 5.7 0 9 2.5 9 8Zm-6.2 4.1v-1.5h-2.6c-2 0-2.7.7-2.7 1.8s.9 1.7 2.3 1.7 2.6-.6 3-2Z" class="b"/>
  <path d="M198.5 87.6c-1 .7-2.6 1-4.3 1-4.4 0-7-2.2-7-6.7v-5.8h-2.6v-4.6h2.5v-4.6h6.2v4.6h4V76h-4v5.8c0 1.3.7 2 1.8 2a3 3 0 0 0 1.9-.6l1.5 4.3Z" class="b"/>
  <path d="M200.2 65.7c0-1.9 1.5-3.3 3.7-3.3s3.8 1.3 3.8 3.2c0 1.9-1.5 3.3-3.8 3.3s-3.7-1.4-3.7-3.3Zm.7 5.1h6v17.5h-6V70.8Z" class="b"/>
  <path d="M209.8 79.5c0-5.2 4.2-9 10-9s9.8 3.8 9.8 9-4.1 9.1-9.9 9.1-9.8-3.8-9.8-9Zm13.6 0c0-2.6-1.6-4-3.7-4s-3.7 1.4-3.7 4 1.6 4.2 3.7 4.2 3.7-1.5 3.7-4.2Z" class="b"/>
  <path d="M251 78.3v10h-6v-9c0-2.5-1.1-3.6-2.9-3.6-2 0-3.4 1.3-3.4 4.2v8.4h-6.2V70.8h5.9v2a7.5 7.5 0 0 1 5.5-2.2c4.1 0 7.2 2.3 7.2 7.7Z" class="b"/>
  <path d="m253.5 86.8 1.8-4.2c1.6 1 4 1.6 6.1 1.6s2.8-.4 2.8-1.2c0-2.3-10.4.4-10.4-6.6 0-3.3 3-5.8 8.6-5.8 2.4 0 5.1.5 6.9 1.4l-1.9 4.2a9.8 9.8 0 0 0-5-1.3c-2 0-2.8.6-2.8 1.2 0 2.5 10.3-.1 10.3 6.8 0 3.2-3 5.7-8.7 5.7-3 0-6-.7-7.7-1.8Z" class="b"/>
  <path d="M281.1 85.2c0-1.9 1.5-3.3 3.7-3.3s3.6 1.4 3.6 3.3-1.4 3.4-3.6 3.4-3.7-1.5-3.7-3.4Zm0-19.5h7.3l-1.2 14.4h-4.9l-1.2-14.3Z" class="b"/>
  <path d="m85.8 126.8-.2.3c.1 0 .2-.1.2-.3Z" class="b"/>
  <path d="M121 179.3h.2-.1Z" class="b"/>
  <path d="M82.1 139Z" class="b"/>
  <path d="M78 126c.7 3.4 0 4.7 1.7 8 .6 1.8 1.6 3.5 2.4 5 1.1.4 1 2.1 2 2.7l-.2.5c.3.2.7.5.6 1h-.1c.5.2.6.8.9 1H85l.4.5h-.2c.7.6 1.2 1.4 1.4 2.2l.5-.4c.3 1.8 1.6 1.8 1.7 3.5h-.1c2.3.8.7 3.2 3 4-.3 0-.2.3-.3.3.7.7 1.3 1.4 2.2.8.4.6 0 .7-.3 1 .4-.3 1 0 1.3.4h-.3l1 1 .6-.7c.2.8-.9.8-.2 1.3l.6-.5c.5 1 0 2.2 0 3.4 2.4 3.6 6.9 6 8.4 9.9l-.3.5c-.6.6 1.7 0 1.1.6l.6.1c0 .2 0 .5-.2.5.2.3.3.3.7.3v.7c.7 1.6 2.4 2 3.4 3.5.6 2.3 4 4.6 6 6 1.6.8 2.4 2.4 3.4 4 1 1.7 2.1 3.4 4 4h.5a38.9 38.9 0 0 0 4.8 3.2c1.2.6 2.9 1 4.2 1.1 1.4 0 2.3-.3 2.4-1.3 0-1-.9-2.6-2.4-5.2l.2-.1c-1.1-1-1.8-1.6-3.2-1.3.5-1.1-1-.8-1-1.3v-.1c-1.2.2-1-1.7-2.2-1.7.1 0 .3-.2.5-.1-.6-.3-1.4-.7-1-1.3-1.3-.9-2.7-2.7-4.2-2.7h.2c-.9 0-.6-.6-1.3-.8v-.2c-.9 0-1.3-1.3-1.9-1.5l.3-.3-1-1 .3.5c-1 .7 0-1.3-1.3-1.5-.5-.8-3.1.3-3.3-.8-.7 0 1-.3.2-.5.5-.5.5 0 .8-.5-.7-.3-.2-1.3-1.1-1.6l.3-.4c-1.3-.2-.8-1.9-1.9-1.9-1-.5.6-1.5-.8-1.7l.2-.8c-.2-.4-.8.3-1-.3.4-.3-.1-.8.4-.8-.3-1.3-2.3-1.3-2.5-3.2-.8.3-1-.7-1.6-.5.2-.2-1-1.3.2-1 .1 0 .2 0 0 .2l.5-.3c.2-1.2-1.4-1-1.9-1.7 0 .3.3.5 0 .6l-.5-.7.4-.1-.6-1.2-.3.5c-.2-.7.4-1.3-.6-1.4-.5 0-.2.8-.7.4-.2-.8-.5-2.1-1-3-.4.4-.6.1-.8 0l.4-.3c-1.2-.5.6-1-.5-1.5l.4-.2-1 .4c-1.4-.2.5-1-1.2-1.1.3.3-.8.8-1 .2l.5-.2c-.2-.1-.5-.1-.5-.3.3 0 .7-.3.3-.6l.7-.2-1.2-.1c.1-.8-1-1.3-.6-1.9 0 0-.4-1.3-1.2-1.1.5 0 .3-.8.8-.9-.6 0-1.5-.6-1.2-1.3-.2-1.5-2-1.8-2-3.3-.5.4-.6-.4-1.1.1-1.3-.9 0-3-2.2-2.3-.4-.5.2-1 .1-1.3h.2c-.7-1-.9-1.2-1.2-2-.4-.3-1.4 0-1.5-.8.5 0 .3-.2.2-.5.1.2.3.2.4-.3l-.3-.1c-.3-.5-.4-.3-.3 0h-.2c.2-.6-.7-1.2 0-1.6-.7-1.3-1.8-2-2.5-3.1.3-.3.7-.1 1 .2l-.5-.8c.5-.2.5.4.7.6.4-1.3-1.6-1.8-1.2-3.2l-.5-.1-.7-.3c.4-.3 1-.4.8-1 .3-.5-.6-1.2-1-1.7 0 .3-.3.3-.5.2 0-.3.3-.6 0-.7l.7-.2c-.6.2-.9-.6-1.1-.7.4-.3.5.4.8.3l-.5-1.7c-.6-.5-.6.2-1.2 0-.3-.4-.8-1-.6-1.7l-.5.4c-.7-1-.7-1.7-.4-2.5a12.5 12.5 0 0 0-3.5-3.2c-.9-.5-1.5-.3-2 0-.8.9-1 2.6-1 2.6-.5 3.7 1.5 5.1 3 9Z" class="b"/>
  <path d="m118.1 200.2.2.3c0-.1 0-.2-.2-.3Z" class="b"/>
  <path d="M139.8 186.4Z" class="b"/>
  <path d="M125 208.3Z" class="b"/>
  <path d="M115.7 207.4c2.4.3 3 1.4 5.6 1 1.2.2 2.5 0 3.7-.1.6-.8 1.6 0 2.2-.7l.3.5c.2-.2.5-.4.7 0 .3-.3.7 0 .9-.2v.1h.4v.1a2 2 0 0 1 1.7-.1v-.6c1 .7 1.5-.5 2.6.3v.1c1.3-1.5 2 1.1 3.4-.3-.2.2 0 .3 0 .5.7-.2 1.4-.2 1.4-1.4.5 0 .4.4.4.8 0-.5.6-.7 1.1-.7l-.2.2 1.6-.1-.5-1c.8.3.4 1.2 1.1 1l-.2-.8c1 .2 2.3 1.4 4 2 1.6.2 3.2.1 4.6 0l-1.5-5.6c-.4-1.7-.6-3.2-.4-4.9l.5-.2c.2 0 .3-.2.2-.3l-.5-.4c-.3 0-.7-.2-.3-.4l-.5-.2c.2-.1.3-.4.5-.2 0-.3-.1-.3-.4-.5l.4-.4c.2-1.3-1-2-1-3.4.9-1.6-.6-4.3-1.5-5.8-1.6-2 1.3-5.2-.6-7.3.1-.1-.2-.3-.3-.2l-.2-2.2s-1.5-10.4-7.1-1.3h-.2c-.3 1.2-.2 2 .8 2.6-1 .3.1 1-.2 1.3h-.1c1 .6-.5 1.6.4 2.1h-.4c.2.4.6 1 0 1.2.3 1.1.3 2.8 1.5 3.4h-.2c.8.3.2.5.6 1h-.1c.7.4.3 1.4.7 1.7l-.5.1.3 1v-.4c1.3-.1-.6.8.3 1.4 0 .6 2.7.8 2.3 1.6.6.2-1-.1-.5.3-.6.1-.4-.2-.9 0 .4.5-.5 1 0 1.4l-.5.1c1 .6-.4 1.5.6 1.9.5.7-1.4.8-.3 1.4l-.6.4c0 .4.9.1.6.6-.2 0-.3.1-.3.2l-.4.1c-.3.2 0 .2.1.4.2 0 .4.3-.2.2 1 .4.4.4 1.1.8-.4-.2 0 .3-.9-.4h.1l-.6-.3c-.5-.2-.3-.1 0 0l.5.6.5.4-.5-.3h-.1l-.3-.2.6.5c-.4-.3-1.2-1.2-.6-.4l.7.8-1.2-1c.3.6.2.5.2.7l-.2-.5c0 .7-.5-1.2-.4-.6v-.4l.2 1.1c0 .5-.1.2-.1 0-.1-.2 0-.4-.2.3.1 0 .1 1.1-.1.9v-.5c-.1.1-.2.3-.3.2.1-.3 0-.7-.3-.6l.3-.6-.7.9c-.4-.6-1.2 0-1.3-.6 0 0-1-.4-1.3.3.3-.4-.3-.6-.1-1.1-.3.5-1 .9-1.3.3-1-.7-2 .7-2.9 0 0 .5-.5.2-.4 1-1 .6-1.8-1.6-2.3.6-.5.2-.5-.5-.8-.6l.2-.2a5 5 0 0 1-1.8.1c-.4.3-.5 1.3-1 1 .2-.4 0-.3-.3-.3.1 0 .2-.2 0-.5l-.3.3v-.1c-.3.1-.3.2 0 .3v.3c-.4-.6-1.1 0-1.1-.8-1.1.2-2 .9-2.9 1.1 0-.3.1-.7.4-.8l-.6.1c0-.5.3-.3.6-.4-.8-.9-1.7.8-2.6 0l-.2.5v-.1c0 .2-.2.5-.4.6 0-.5 0-1.1-.4-1-.3-.5-1 .1-1.5.3.3.1.2.4 0 .5-.1 0-.3-.4-.4-.2v-.7c0 .6-.6.7-.7 1-.1-.5.3-.5.4-.8h-1.4c-.5.5.1.6-.1 1.2-.5 0-.9.5-1.4.1l.2.6c-.8.4-1.3.3-1.8-.3-6.1 4.4-1.5 6.2-1.5 6.2 2.3 1.3 3.6-.3 6.4-.6Z" class="b"/>
  <path d="M202.5 138.1v.4c0-.1.1-.2 0-.4Z" class="b"/>
  <path d="M252.8 182.3Z" class="b"/>
  <path d="M203 151.3Z" class="b"/>
  <path d="m194.8 139.8 2 3.8a52.3 52.3 0 0 0 6.3 7.7c1.1 0 1.5 1.7 2.7 2v.6c.4.1.8.3.8.8h-.1c.6.2.8.8 1.1.8v.1l.4.4h-.2a6 6 0 0 1 2 1.9l.3-.5c.8 1.7 2.1 1.3 2.7 3h-.1c2.4.4 1.5 3 4 3.4-.3 0-.1.3-.2.4.8.5 1.6 1.2 2.4.3.4.5.1.7-.1 1 .3-.3 1 0 1.3.3h-.3l1.3.8.4-.9c.4.8-.6 1 .1 1.4l.5-.6c.8.9.5 2.2 1 3.3 1.6 1.7 3.7 2.8 5.7 4 2 1.3 4 2.5 5.2 4.3l-.2.6c-.4.8 1.7-.4 1.4.4h.6c0 .1.2.5-.1.5.3.3.4.1.8.1l.1.7c1.3 1.4 3.1 1.5 4.6 2.6.7 1.1 2 2 3.5 2.8 1.6.7 3.2 1.2 4.5 1.6.9.1 1.7.6 2.4 1.1l2.1 1.9c1.5 1.3 3 2.7 4.9 2.8 0 .2.4 0 .4 0l2.9 1.5.6.3 1.5.6c1.2.5 2.7 1 4 1 2.6.3 4-.9.1-6.5l.2-.1a6 6 0 0 0-1.9-1.2 3 3 0 0 0-1.9-.1c.3-1.1-1.2-.7-1.4-1.3-1.3.3-1.5-1.6-2.8-1.4 0 0 .2-.3.5-.2-.8-.2-1.8-.5-1.5-1.1-1.6-.7-3.6-2-5.1-1.7l.2-.1c-1 .3-.8-.4-1.6-.4v-.2c-1 .3-1.8-1-2.5-1l.2-.4-1.2-.6.4.4c-.8 1-.5-1.2-1.8-1-.7-.7-3 1-3.5 0-.7.2.9-.6 0-.6.4-.5.5-.2.7-.7-.8 0-.6-1.1-1.6-1.2l.3-.5c-1.5.2-1.4-1.7-2.5-1.4-1.1-.3.3-1.6-1.3-1.5v-.8c-.3-.4-.7.5-1-.1.3-.4-.4-.7.1-.8-.6-1.3-2.6-.8-3.3-2.7-.7.4-1.1-.5-1.7-.2.2-.3-1.3-1 0-1 0 0 .1 0 0 .1l.4-.3c-.2-1.3-1.6-.7-2.3-1.4.1.3.4.5 0 .6l-.6-.6.4-.2-.8-1-.2.5c-.4-.6 0-1.4-1-1.3-.5.1 0 1-.6.6-.4-.8-1-2-1.8-2.8-.3.5-.5.3-.8.2l.3-.4c-1.3-.3.4-1.1-.8-1.5l.3-.2-.9.6c-1.4 0 .3-1.1-1.5-.9.4.3-.6 1-.8.4l.4-.2c-.3-.2-.5 0-.6-.3.3 0 .5-.4.2-.7l.6-.2h-1.2c-.2-.8-1.4-1-1-1.7 0 0-.9-1.3-1.7-1 .6 0 .1-.7.7-1-.7.1-1.8-.3-1.7-1h.1c-.7-1.5-2.4-1.4-3-3-.3.5-.6-.3-1 .4-1.6-.6-.8-3-2.8-1.9-.6-.4-.2-1-.3-1.3h.2c-1-.8-1.3-1-2-1.8-.4-.2-1.3.4-1.6-.4.5 0 .2-.3 0-.5.2.1.3 0 .3-.4h-.4v-.1c-.4-.3-.4-.2-.3 0l-.2.3c.1-.8-1-1.2-.5-1.7-1.1-1.1-2.5-1.5-3.5-2.4.2-.3.7-.3 1 0l-.7-.8c.4-.3.6.3.9.4 0-1.4-2.1-1.3-2.3-2.8h-1.3c.3-.5.9-.7.4-1.2 0-.7-1-1-1.6-1.5.1.4-.2.4-.4.4-.2-.3 0-.7-.2-.8l.5-.4c-.4.5-1-.3-1.3-.2.2-.5.6.1 1 0l-1.3-1.6c-.8-.3-.4.5-1 .5-.5-.4-1.2-.6-1.3-1.4l-.4.5c-1-.8-1.3-1.4-1.3-2.4-4.3-2.4-5.9-2-6.4-1-.4 1.1.2 2.9.2 2.9a8.3 8.3 0 0 0 2.3 4c1.1 1 2.4 1.8 3.8 3.4Z" class="b"/>
  <path d="m247 191.2.1.2c0-.1 0-.2-.2-.2Z" class="b"/>
  <path d="M258.8 177Z" class="b"/>
  <path d="M254.5 199.1Z" class="b"/>
  <path d="M244.5 198.4c2.6.3 3.3 1.4 6 1l4-.3c.6-.8 1.7 0 2.4-.7l.3.5c.2-.2.5-.4.8-.1v.1c.3-.4.7-.1 1-.3l-.1.1h.4v.2c.6-.4 1.3-.4 1.9-.3v-.5c.6.3 1 .2 1.4 0 .7 0 1.3-.2 2.4.2v.2c1-.8 2-.5 3.1-.2 1.1.2 2.5.5 3-.2 0 .2.5.3.6.5 1-.2 2.2-.3.8-1.4.8 0 1 .4 1.7.8-.6-.5-.2-.7.3-.7v.2l1.5-.2-1.8-1c1.2.4 2 1.2 2.5 1l-1.3-.8c1.3.2 4.2 1.4 6.8 2h1.2c-1.9-2.1-4.8-4.6-7-6.7l-2.8-3c-.8-.9-1.3-1.8-1.8-2.8l.5-.4c.4-.2-.2-.4-.7-.6-.5-.2-1-.3-.7-.6l-.7-.2c0-.3 0-.6.3-.5l-.3-.3h-.4l.3-.6c-.3-1.2-1.7-1.5-2.2-2.7.1-1.9-2-4-3.3-5.2-.5-.4-.8-1-1-1.6v-2c0-1.4 0-2.7-1-3.6l-.4-.2-.5-2.1-.1-.5-.3-1-1.3-2.6c-.6-.7-1.3-1.1-2.2-.8-1 .3-2 1.4-3.3 4h-.2c-.1 1.3 0 2.2 1.1 2.8-1 .5.2 1.1 0 1.5h-.1c1 .5-.2 1.8.8 2.3h-.5c.3.4.8 1 .2 1.4.6 1.2 1 3.1 2.4 3.5h-.2c.9.2.4.5 1 .9l-.2.1c.9.2.8 1.4 1.2 1.7l-.4.2.6 1v-.5c1-.4-.4 1 .7 1.4.2.7 2.9 0 2.7 1 .7 0-1 .2-.3.4-.5.4-.5 0-.8.4.5.3-.1 1 .6 1.4l-.5.3c1.2.2.3 1.7 1.4 1.7.8.5-1 1.3.4 1.5l-.5.5c0 .2.8-.3.6 0-.4.2-.2.3-.7.4-.2.2 0 .1.3.2.3 0 .6.3 0 .3l1.4.4c-.5 0 .2.3-1 0-.2-.1-.2-.1 0 0l-.7-.3c-.7 0-.5 0 0 .1l.8.4.7.2-.7-.2h-.3l.9.3c-.4 0-2-.8-.6 0 .8.3 1.3.4 1.7.7l-.4-.2c-.5 0-1.4-.5-1.7-.6l1.2.7-1-.5-1-.6-.6-.3 1.6 1c.7.5.3.3 0 0-.4-.2-.6-.4.2.3 0 0 1.5 1.2 1 1l-.5-.6c0 .1.2.3 0 .2l-.8-.6-.7-.6 1 .9c-.8-.5-.4.1-1-.6 0 0-.4-.3 0 .4l-.8-1.2c.3.6.3 1 0 .4-.1-.3-.1-.1-.2 0 0 .1-.1.2-.3.2h-.3c-.3 0-.5 0-.8-.2 0 .6-.5.3-.4 1-1.1.8-2-1.5-2.4.8-.5.1-.6-.6-.9-.7h.1-2c-.3.3-.3 1.3-1 1 .2-.4 0-.3-.3-.3.2 0 .2-.2 0-.5l-.2.3v-.1c-.4.1-.4.2-.2.3v.3c-.3-.6-1 0-1.1-.7-1.2.1-2 .9-3 1.1-.2-.3 0-.7.4-.8l-.7.1c0-.5.4-.3.6-.4-.8-.9-1.7.8-2.7 0l-.2.5v-.1c0 .2-.3.5-.5.6 0-.5 0-1-.4-1-.4-.5-1.1.2-1.6.4.3 0 .2.3 0 .5-.2 0-.3-.4-.5-.3v-.6c0 .6-.6.6-.7.9 0-.5.4-.4.4-.7h-1.2c-.5.4 0 .6-.3 1.1-.4 0-.9.4-1.3 0v.6c-.8.2-1.3 0-1.5-.8-.8.3-1.6.3-2.3.2l-1.7-.2c-1 0-1.5.4-1.8.9l-.1 1a4.3 4.3 0 0 0 .7 2l.3.3c.3.5.8 1 1.3 1.3.4.4.9.7 1.3.9 1 .3 1.7.5 2.5.5 1.5 0 3-.4 4.6-.6Z" class="b"/>
</svg>
